<svg
  width="13"
  height="13"
  viewBox="0 0 13 13"
  fill="none"
  xmlns="http://www.w3.org/2000/svg"
>
  <path
    d="M9.64257 7.04102C9.93665 7.04102 10.1908 7.04065 10.3984 7.05762C10.6122 7.07515 10.8256 7.11448 11.0303 7.21875C11.3357 7.37457 11.5846 7.62318 11.7402 7.92871C11.8445 8.13352 11.8829 8.34657 11.9004 8.56055C11.9174 8.76836 11.917 9.022 11.917 9.31641V9.6416C11.917 9.93589 11.9174 10.1897 11.9004 10.3975C11.8829 10.6114 11.8445 10.8246 11.7402 11.0293C11.5845 11.3348 11.3357 11.5835 11.0303 11.7393C10.8256 11.8435 10.6122 11.8819 10.3984 11.8994C10.1908 11.9164 9.93665 11.916 9.64257 11.916H9.31738C9.02322 11.916 8.76923 11.9163 8.56152 11.8994C8.34762 11.8819 8.13441 11.8435 7.92968 11.7393C7.62407 11.5835 7.37553 11.3348 7.21972 11.0293C7.11536 10.8245 7.0761 10.6115 7.05859 10.3975C7.04161 10.1897 7.04198 9.93593 7.04198 9.6416V9.31641C7.04198 9.02199 7.04161 8.76836 7.05859 8.56055C7.07609 8.34647 7.11532 8.1336 7.21972 7.92871C7.37552 7.6231 7.62403 7.3745 7.92968 7.21875C8.13445 7.11452 8.34758 7.07511 8.56152 7.05762C8.76923 7.04069 9.02322 7.04102 9.31738 7.04102H9.64257ZM3.68359 7.17676C3.98 7.17676 4.2268 7.17599 4.42773 7.19238C4.63349 7.2092 4.82708 7.24579 5.00976 7.33887C5.29001 7.48167 5.51734 7.70999 5.66015 7.99023C5.75316 8.17277 5.7898 8.3657 5.80663 8.57129C5.82306 8.77231 5.82323 9.01976 5.82323 9.31641V9.6416C5.82323 9.93803 5.82303 10.1848 5.80663 10.3857C5.78982 10.5915 5.75322 10.7851 5.66015 10.9678C5.51738 11.2478 5.2898 11.4754 5.00976 11.6182C4.82708 11.7112 4.6335 11.7478 4.42773 11.7646C4.22679 11.7811 3.98003 11.7812 3.68359 11.7812H3.35839C3.06173 11.7812 2.8143 11.7811 2.61327 11.7646C2.40767 11.7478 2.21477 11.7112 2.03222 11.6182C1.75197 11.4754 1.52365 11.248 1.38085 10.9678C1.28778 10.7851 1.25118 10.5915 1.23437 10.3857C1.21797 10.1848 1.21874 9.938 1.21874 9.6416V9.31641C1.21874 9.01976 1.21794 8.77231 1.23437 8.57129C1.25119 8.36576 1.28792 8.17273 1.38085 7.99023C1.52367 7.70996 1.75194 7.48167 2.03222 7.33887C2.21472 7.24593 2.40774 7.2092 2.61327 7.19238C2.8143 7.17596 3.06173 7.17676 3.35839 7.17676H3.68359ZM3.68359 1.21875C3.98 1.21875 4.2268 1.21798 4.42773 1.23438C4.6335 1.25119 4.82707 1.28778 5.00976 1.38086C5.29 1.52366 5.51734 1.75199 5.66015 2.03223C5.75313 2.21475 5.78981 2.40771 5.80663 2.61328C5.82305 2.8143 5.82323 3.06178 5.82323 3.3584V3.68359C5.82323 3.98 5.82303 4.22682 5.80663 4.42773C5.78982 4.63347 5.75322 4.82711 5.66015 5.00977C5.51737 5.28979 5.28979 5.5174 5.00976 5.66016C4.82708 5.75323 4.63349 5.78983 4.42773 5.80664C4.22679 5.82304 3.98003 5.82324 3.68359 5.82324H3.35839C3.06173 5.82324 2.8143 5.82306 2.61327 5.80664C2.40769 5.78981 2.21476 5.75316 2.03222 5.66016C1.75199 5.51736 1.52366 5.28999 1.38085 5.00977C1.28778 4.82711 1.25118 4.63347 1.23437 4.42773C1.21797 4.22683 1.21874 3.97997 1.21874 3.68359V3.3584C1.21874 3.06178 1.21795 2.8143 1.23437 2.61328C1.25119 2.40777 1.28794 2.21471 1.38085 2.03223C1.52366 1.75195 1.75195 1.52367 2.03222 1.38086C2.21472 1.28792 2.40774 1.2512 2.61327 1.23438C2.8143 1.21795 3.06173 1.21875 3.35839 1.21875H3.68359Z"
    fill="#775DFF"
  />
  <path
    d="M9.47957 1.35156C9.77858 1.35173 10.0216 1.5945 10.0216 1.89355V2.97656H11.1046C11.4036 2.97673 11.6466 3.2195 11.6466 3.51855C11.6465 3.81758 11.4036 4.06038 11.1046 4.06055H10.0216V5.14355C10.0215 5.44257 9.77855 5.68538 9.47957 5.68555C9.18044 5.68555 8.93762 5.44267 8.93758 5.14355V4.06055H7.85457C7.55543 4.06055 7.31261 3.81769 7.31258 3.51855C7.31258 3.2194 7.55541 2.97656 7.85457 2.97656H8.93758V1.89355C8.93758 1.5944 9.18041 1.35156 9.47957 1.35156Z"
    fill="#775DFF"
  />
</svg>
