<svg
  width="100"
  height="105"
  viewBox="0 0 100 105"
  fill="none"
  xmlns="http://www.w3.org/2000/svg"
>
  <path
    d="M49.8083 104.638C35.9386 104.638 24.6949 101.921 24.6949 98.5691C24.6949 95.2172 35.9386 92.5 49.8083 92.5C63.6781 92.5 74.9218 95.2172 74.9218 98.5691C74.9218 101.921 63.6781 104.638 49.8083 104.638Z"
    fill="#26262B"
  />
  <path
    d="M71.7131 0C87.3353 0 99.9999 12.6643 100 28.2865V54.1782C100 69.8005 87.3353 82.4652 71.7131 82.4652C62.9894 82.4651 55.1884 78.5157 49.9996 72.3078C44.8108 78.5156 37.0101 82.4652 28.2865 82.4652C12.6643 82.4651 0 69.8005 0 54.1782V28.2865C7.66128e-05 12.6644 12.6644 6.73067e-05 28.2865 0C37.01 0 44.8108 3.94927 49.9996 10.157C55.1884 3.94911 62.9895 2.69838e-05 71.7131 0Z"
    fill="#2D2D33"
  />
  <path
    d="M50.963 71.5026C55.9235 77.4373 63.3771 81.2095 71.7131 81.2095V82.4652C62.9894 82.4651 55.1884 78.5157 49.9996 72.3078C44.8108 78.5156 37.0101 82.4652 28.2865 82.4652V81.2095C36.6223 81.2095 44.0756 77.4372 49.0362 71.5026L49.9996 70.3499L50.963 71.5026ZM98.7443 54.1782V28.2865C98.7443 13.3578 86.6418 1.25567 71.7131 1.25567C63.3772 1.2557 55.9235 5.02755 50.963 10.9622L49.9996 12.1149L49.0362 10.9622C44.0757 5.02768 36.6223 1.25567 28.2865 1.25567C13.4745 1.25574 1.4449 13.1694 1.25772 27.9371L1.25567 28.2865V54.1782C1.25567 69.107 13.3578 81.2094 28.2865 81.2095V82.4652C12.6643 82.4651 0 69.8005 0 54.1782V28.2865C7.66128e-05 12.6644 12.6644 6.73067e-05 28.2865 0C37.01 0 44.8108 3.94927 49.9996 10.157C55.1884 3.94911 62.9895 2.69838e-05 71.7131 0C87.3353 0 99.9999 12.6643 100 28.2865V54.1782C100 69.8005 87.3353 82.4652 71.7131 82.4652V81.2095C86.6419 81.2095 98.7443 69.107 98.7443 54.1782Z"
    fill="#393942"
  />
  <path
    d="M50.7978 39.5248C52.8874 42.1999 56.2501 43.9503 60.0629 43.9503V45.206C55.8615 45.206 52.1346 43.2759 49.8082 40.2978C47.4819 43.2759 43.755 45.206 39.5536 45.206V43.9503C43.3664 43.9503 46.729 42.1999 48.8187 39.5248L49.8082 38.2581L50.7978 39.5248ZM71.5732 33.0678C71.5732 27.2096 66.6383 22.3399 60.3629 22.189L60.0629 22.1854C56.2501 22.1854 52.8874 23.9356 50.7978 26.6105L49.8082 27.8772L48.8187 26.6105C46.7943 24.0192 43.5752 22.2954 39.9096 22.1903L39.5536 22.1854C33.1362 22.1854 28.0433 27.1165 28.0433 33.0678C28.0433 39.0192 33.1362 43.9503 39.5536 43.9503V45.206C32.5031 45.206 26.7876 39.7716 26.7876 33.0678C26.7876 26.3641 32.5031 20.9297 39.5536 20.9297C43.7548 20.9297 47.4819 22.8595 49.8082 25.8375C52.1346 22.8595 55.8616 20.9297 60.0629 20.9297C67.1133 20.9297 72.8289 26.3641 72.8289 33.0678C72.8289 39.7716 67.1133 45.206 60.0629 45.206V43.9503C66.38 43.9503 71.4137 39.1721 71.5695 33.3462L71.5732 33.0678Z"
    fill="#393942"
  />
  <path
    d="M60.063 42.6928C56.7111 42.6928 53.9939 39.9756 53.9939 36.6238C53.9939 33.2719 56.7111 30.5547 60.063 30.5547C63.4149 30.5547 66.1321 33.2719 66.1321 36.6238C66.1321 39.9756 63.4149 42.6928 60.063 42.6928Z"
    fill="#393942"
  />
  <path
    d="M39.5536 42.6928C36.2017 42.6928 33.4845 39.9756 33.4845 36.6238C33.4845 33.2719 36.2017 30.5547 39.5536 30.5547C42.9055 30.5547 45.6227 33.2719 45.6227 36.6238C45.6227 39.9756 42.9055 42.6928 39.5536 42.6928Z"
    fill="#393942"
  />
  <path
    d="M49.2815 60.0562C53.7326 57.7399 63.4048 55.1403 72.6721 60.4907C73.4228 60.9241 73.6802 61.8843 73.2467 62.635C72.8269 63.3621 71.9128 63.6262 71.1736 63.2481L71.1025 63.2093L70.7015 62.9836C62.2763 58.3662 53.4431 61.1889 50.092 63.1966C50.0737 63.2075 50.0551 63.2179 50.0365 63.2281C50.0288 63.2322 50.0212 63.2363 50.0136 63.2403C49.997 63.249 49.9802 63.2572 49.9633 63.2653C49.9566 63.2685 49.95 63.272 49.9433 63.2751C49.9323 63.2801 49.9212 63.285 49.9101 63.2898C49.7398 63.364 49.5618 63.4055 49.3837 63.4165C49.3765 63.417 49.3692 63.4174 49.362 63.4177C49.3508 63.4183 49.3397 63.4187 49.3285 63.419C49.3141 63.4194 49.2996 63.4198 49.2852 63.4198C49.2762 63.4198 49.2672 63.4195 49.2582 63.4194C49.2404 63.4191 49.2225 63.4186 49.2047 63.4177C49.1996 63.4175 49.1946 63.4168 49.1895 63.4165C49.1722 63.4155 49.1549 63.4145 49.1376 63.4128C49.1264 63.4118 49.1153 63.4105 49.1041 63.4091C49.016 63.3989 48.9283 63.3812 48.8417 63.3556C48.8317 63.3527 48.8218 63.3493 48.8118 63.3462C48.7966 63.3413 48.7813 63.3364 48.7661 63.3311C48.7594 63.3287 48.7527 63.3262 48.746 63.3237C48.7288 63.3174 48.7116 63.3111 48.6945 63.3041C48.6872 63.3011 48.6801 63.2978 48.6729 63.2947C48.6583 63.2885 48.6436 63.2822 48.6291 63.2755C48.6172 63.27 48.6054 63.2645 48.5936 63.2587C48.5863 63.2552 48.5787 63.2518 48.5715 63.2481L48.565 63.2444C48.5457 63.2345 48.5266 63.2241 48.5077 63.2134L48.5004 63.2093L48.0994 62.9836C39.6742 58.3662 30.8411 61.1889 27.49 63.1966C26.7464 63.642 25.7822 63.4002 25.3367 62.6566C24.8914 61.9132 25.1329 60.9493 25.8762 60.5038C29.7604 58.1766 39.6528 54.9681 49.2815 60.0562Z"
    fill="#393942"
  />
  <path
    d="M84.5486 62.784C84.5486 59.3166 81.7377 56.5057 78.2702 56.5057C74.8028 56.5057 71.9919 59.3166 71.9919 62.784C71.9919 66.2515 74.8028 69.0624 78.2702 69.0624V70.3181C74.1093 70.3181 70.7362 66.945 70.7362 62.784C70.7362 58.6231 74.1093 55.25 78.2702 55.25C82.4312 55.25 85.8043 58.6231 85.8043 62.784C85.8043 66.945 82.4312 70.3181 78.2702 70.3181V69.0624C81.7377 69.0624 84.5486 66.2515 84.5486 62.784Z"
    fill="#393942"
  />
  <path
    d="M26.3691 63.62C26.3691 60.1525 23.5582 57.3416 20.0908 57.3416C16.6234 57.3416 13.8124 60.1525 13.8124 63.62C13.8124 67.0874 16.6234 69.8983 20.0908 69.8983V71.154C15.9299 71.154 12.5568 67.7809 12.5568 63.62C12.5568 59.459 15.9299 56.0859 20.0908 56.0859C24.2517 56.0859 27.6248 59.459 27.6248 63.62C27.6248 67.7809 24.2517 71.154 20.0908 71.154V69.8983C23.5582 69.8983 26.3691 67.0874 26.3691 63.62Z"
    fill="#393942"
  />
</svg>
