<svg
  width="102"
  height="105"
  viewBox="0 0 102 105"
  fill="none"
  xmlns="http://www.w3.org/2000/svg"
>
  <ellipse
    cx="48.5625"
    cy="98.1438"
    rx="5.91728"
    ry="24.4853"
    transform="rotate(90 48.5625 98.1438)"
    fill="black"
  />
  <mask id="path-2-inside-1_2969_2241" fill="white">
    <path
      d="M69.9199 4.89844C85.1513 4.89869 97.499 17.2461 97.499 32.4775V57.7217C97.4988 72.9529 85.1511 85.3005 69.9199 85.3008C61.414 85.3008 53.8081 81.4488 48.749 75.3955C43.69 81.4486 36.0849 85.3008 27.5791 85.3008C12.3477 85.3008 0.000207043 72.953 0 57.7217V32.4775C0 17.246 12.3476 4.89846 27.5791 4.89844C36.0849 4.89844 43.69 8.7497 48.749 14.8027C53.8081 8.74954 61.414 4.89844 69.9199 4.89844Z"
    />
  </mask>
  <path
    d="M69.9199 4.89844C85.1513 4.89869 97.499 17.2461 97.499 32.4775V57.7217C97.4988 72.9529 85.1511 85.3005 69.9199 85.3008C61.414 85.3008 53.8081 81.4488 48.749 75.3955C43.69 81.4486 36.0849 85.3008 27.5791 85.3008C12.3477 85.3008 0.000207043 72.953 0 57.7217V32.4775C0 17.246 12.3476 4.89846 27.5791 4.89844C36.0849 4.89844 43.69 8.7497 48.749 14.8027C53.8081 8.74954 61.414 4.89844 69.9199 4.89844Z"
    fill="#775DFF"
  />
  <path
    d="M69.9199 4.89844L69.9199 3.67417H69.9199V4.89844ZM97.499 57.7217L98.7233 57.7217V57.7217H97.499ZM69.9199 85.3008V86.525H69.9199L69.9199 85.3008ZM48.749 75.3955L49.6884 74.6104L48.749 73.4864L47.8096 74.6104L48.749 75.3955ZM27.5791 85.3008L27.5791 86.525H27.5791V85.3008ZM0 57.7217H-1.22426V57.7217L0 57.7217ZM27.5791 4.89844V3.67417H27.5791L27.5791 4.89844ZM48.749 14.8027L47.8097 15.5878L48.749 16.7118L49.6884 15.5878L48.749 14.8027ZM69.9199 4.89844L69.9199 6.1227C84.4751 6.12294 96.2748 17.9223 96.2748 32.4775H97.499H98.7233C98.7233 16.57 85.8274 3.67444 69.9199 3.67417L69.9199 4.89844ZM97.499 32.4775H96.2748V57.7217H97.499H98.7233V32.4775H97.499ZM97.499 57.7217L96.2748 57.7217C96.2746 72.2767 84.475 84.0763 69.9199 84.0765L69.9199 85.3008L69.9199 86.525C85.8273 86.5248 98.7231 73.629 98.7233 57.7217L97.499 57.7217ZM69.9199 85.3008V84.0765C61.7921 84.0765 54.5249 80.3974 49.6884 74.6104L48.749 75.3955L47.8096 76.1806C53.0912 82.5002 61.0358 86.525 69.9199 86.525V85.3008ZM48.749 75.3955L47.8096 74.6104C42.9731 80.3973 35.7067 84.0765 27.5791 84.0765V85.3008V86.525C36.4631 86.525 44.4069 82.5 49.6884 76.1806L48.749 75.3955ZM27.5791 85.3008L27.5791 84.0765C13.0239 84.0765 1.22446 72.2769 1.22426 57.7217L0 57.7217L-1.22426 57.7217C-1.22405 73.6292 11.6715 86.525 27.5791 86.525L27.5791 85.3008ZM0 57.7217H1.22426V32.4775H0H-1.22426V57.7217H0ZM0 32.4775H1.22426C1.22426 17.9222 13.0237 6.12273 27.5791 6.1227L27.5791 4.89844L27.5791 3.67417C11.6714 3.6742 -1.22426 16.5699 -1.22426 32.4775H0ZM27.5791 4.89844V6.1227C35.7068 6.1227 42.9732 9.8011 47.8097 15.5878L48.749 14.8027L49.6884 14.0176C44.4068 7.6983 36.463 3.67417 27.5791 3.67417V4.89844ZM48.749 14.8027L49.6884 15.5878C54.5248 9.80099 61.7921 6.1227 69.9199 6.1227V4.89844V3.67417C61.036 3.67417 53.0913 7.6981 47.8096 14.0176L48.749 14.8027Z"
    fill="black"
    mask="url(#path-2-inside-1_2969_2241)"
  />
  <mask
    id="path-4-outside-2_2969_2241"
    maskUnits="userSpaceOnUse"
    x="11.8346"
    y="1"
    width="7"
    height="18"
    fill="black"
  >
    <rect fill="white" x="11.8346" y="1" width="7" height="18" />
    <path
      d="M16.2382 12.676H13.6877L13.4287 2.57345H16.4973L16.2382 12.676ZM14.9829 17.1793C14.6774 17.1793 14.3951 17.103 14.136 16.9502C13.877 16.7974 13.6711 16.5948 13.5183 16.3424C13.3722 16.0834 13.3025 15.8044 13.3091 15.5055C13.3025 15.2066 13.3722 14.931 13.5183 14.6786C13.6711 14.4262 13.877 14.2269 14.136 14.0808C14.3951 13.928 14.6774 13.8517 14.9829 13.8517C15.2685 13.8517 15.5375 13.928 15.7899 14.0808C16.049 14.2269 16.2549 14.4262 16.4076 14.6786C16.5604 14.931 16.6368 15.2066 16.6368 15.5055C16.6368 15.8044 16.5604 16.0834 16.4076 16.3424C16.2549 16.5948 16.049 16.7974 15.7899 16.9502C15.5375 17.103 15.2685 17.1793 14.9829 17.1793Z"
    />
  </mask>
  <path
    d="M16.2382 12.676H13.6877L13.4287 2.57345H16.4973L16.2382 12.676ZM14.9829 17.1793C14.6774 17.1793 14.3951 17.103 14.136 16.9502C13.877 16.7974 13.6711 16.5948 13.5183 16.3424C13.3722 16.0834 13.3025 15.8044 13.3091 15.5055C13.3025 15.2066 13.3722 14.931 13.5183 14.6786C13.6711 14.4262 13.877 14.2269 14.136 14.0808C14.3951 13.928 14.6774 13.8517 14.9829 13.8517C15.2685 13.8517 15.5375 13.928 15.7899 14.0808C16.049 14.2269 16.2549 14.4262 16.4076 14.6786C16.5604 14.931 16.6368 15.2066 16.6368 15.5055C16.6368 15.8044 16.5604 16.0834 16.4076 16.3424C16.2549 16.5948 16.049 16.7974 15.7899 16.9502C15.5375 17.103 15.2685 17.1793 14.9829 17.1793Z"
    fill="white"
  />
  <path
    d="M16.2382 12.676V13.9003H17.4315L17.4621 12.7074L16.2382 12.676ZM13.6877 12.676L12.4638 12.7074L12.4944 13.9003H13.6877V12.676ZM13.4287 2.57345V1.34918H12.1726L12.2048 2.60483L13.4287 2.57345ZM16.4973 2.57345L17.7212 2.60483L17.7533 1.34918H16.4973V2.57345ZM13.5183 16.3424L12.452 16.9439L12.4612 16.9603L12.471 16.9764L13.5183 16.3424ZM13.3091 15.5055L14.5331 15.5327L14.5337 15.5055L14.5331 15.4783L13.3091 15.5055ZM13.5183 14.6786L12.471 14.0447L12.4648 14.0549L12.4588 14.0652L13.5183 14.6786ZM14.136 14.0808L14.7375 15.1471L14.7478 15.1413L14.7579 15.1354L14.136 14.0808ZM15.7899 14.0808L15.156 15.1282L15.172 15.1379L15.1884 15.1471L15.7899 14.0808ZM16.4076 16.3424L17.455 16.9764L17.4622 16.9643L16.4076 16.3424ZM15.7899 16.9502L15.168 15.8956L15.156 15.9028L15.7899 16.9502ZM16.2382 12.676V11.4518H13.6877V12.676V13.9003H16.2382V12.676ZM13.6877 12.676L14.9116 12.6446L14.6525 2.54207L13.4287 2.57345L12.2048 2.60483L12.4638 12.7074L13.6877 12.676ZM13.4287 2.57345V3.79771H16.4973V2.57345V1.34918H13.4287V2.57345ZM16.4973 2.57345L15.2734 2.54207L15.0144 12.6446L16.2382 12.676L17.4621 12.7074L17.7212 2.60483L16.4973 2.57345ZM14.9829 17.1793V15.9551C14.8924 15.9551 14.8254 15.9354 14.7579 15.8956L14.136 16.9502L13.5141 18.0047C13.9647 18.2705 14.4623 18.4036 14.9829 18.4036V17.1793ZM14.136 16.9502L14.7579 15.8956C14.6698 15.8437 14.6115 15.7842 14.5657 15.7085L13.5183 16.3424L12.471 16.9764C12.7307 17.4054 13.0842 17.7512 13.5141 18.0047L14.136 16.9502ZM13.5183 16.3424L14.5846 15.7409C14.5472 15.6745 14.5313 15.6129 14.5331 15.5327L13.3091 15.5055L12.0851 15.4783C12.0736 15.9959 12.1972 16.4923 12.452 16.9439L13.5183 16.3424ZM13.3091 15.5055L14.5331 15.4783C14.5313 15.3981 14.5472 15.3449 14.5778 15.292L13.5183 14.6786L12.4588 14.0652C12.1972 14.5171 12.0736 15.0152 12.0851 15.5327L13.3091 15.5055ZM13.5183 14.6786L14.5657 15.3125C14.6086 15.2417 14.6603 15.1907 14.7375 15.1471L14.136 14.0808L13.5345 13.0145C13.0937 13.2632 12.7336 13.6107 12.471 14.0447L13.5183 14.6786ZM14.136 14.0808L14.7579 15.1354C14.8254 15.0956 14.8924 15.0759 14.9829 15.0759V13.8517V12.6274C14.4623 12.6274 13.9647 12.7605 13.5141 13.0263L14.136 14.0808ZM14.9829 13.8517V15.0759C15.0374 15.0759 15.0882 15.0871 15.156 15.1282L15.7899 14.0808L16.4238 13.0335C15.9869 12.769 15.4996 12.6274 14.9829 12.6274V13.8517ZM15.7899 14.0808L15.1884 15.1471C15.2657 15.1907 15.3174 15.2417 15.3603 15.3125L16.4076 14.6786L17.455 14.0447C17.1923 13.6107 16.8322 13.2632 16.3914 13.0145L15.7899 14.0808ZM16.4076 14.6786L15.3603 15.3125C15.3957 15.3711 15.4125 15.4271 15.4125 15.5055H16.6368H17.861C17.861 14.9862 17.7251 14.4909 17.455 14.0447L16.4076 14.6786ZM16.6368 15.5055H15.4125C15.4125 15.5843 15.3955 15.6487 15.3531 15.7205L16.4076 16.3424L17.4622 16.9643C17.7253 16.5181 17.861 16.0246 17.861 15.5055H16.6368ZM16.4076 16.3424L15.3603 15.7085C15.3144 15.7842 15.2561 15.8437 15.168 15.8956L15.7899 16.9502L16.4118 18.0047C16.8418 17.7512 17.1953 17.4054 17.455 16.9764L16.4076 16.3424ZM15.7899 16.9502L15.156 15.9028C15.0882 15.9439 15.0374 15.9551 14.9829 15.9551V17.1793V18.4036C15.4996 18.4036 15.9869 18.262 16.4238 17.9975L15.7899 16.9502Z"
    fill="black"
    mask="url(#path-4-outside-2_2969_2241)"
  />
  <mask id="path-6-inside-3_2969_2241" fill="white">
    <path
      d="M58.561 25.2969C65.4349 25.2971 71.0071 30.5951 71.0073 37.1309C71.0073 43.6668 65.435 48.9656 58.561 48.9658C54.4644 48.9658 50.8301 47.0837 48.562 44.1797C46.2938 47.0834 42.6603 48.9658 38.5639 48.9658C31.69 48.9656 26.1176 43.6668 26.1176 37.1309C26.1178 30.5951 31.6901 25.2971 38.5639 25.2969C42.6601 25.2969 46.2938 27.1785 48.562 30.082C50.8301 27.1782 54.4646 25.2969 58.561 25.2969Z"
    />
  </mask>
  <path
    d="M58.561 25.2969C65.4349 25.2971 71.0071 30.5951 71.0073 37.1309C71.0073 43.6668 65.435 48.9656 58.561 48.9658C54.4644 48.9658 50.8301 47.0837 48.562 44.1797C46.2938 47.0834 42.6603 48.9658 38.5639 48.9658C31.69 48.9656 26.1176 43.6668 26.1176 37.1309C26.1178 30.5951 31.6901 25.2971 38.5639 25.2969C42.6601 25.2969 46.2938 27.1785 48.562 30.082C50.8301 27.1782 54.4646 25.2969 58.561 25.2969Z"
    fill="white"
  />
  <path
    d="M58.561 25.2969L58.561 24.0726H58.561V25.2969ZM71.0073 37.1309H72.2316V37.1308L71.0073 37.1309ZM58.561 48.9658V50.1901H58.561L58.561 48.9658ZM48.562 44.1797L49.5268 43.4261L48.562 42.1908L47.5972 43.426L48.562 44.1797ZM38.5639 48.9658L38.5639 50.1901H38.5639V48.9658ZM26.1176 37.1309L24.8934 37.1308V37.1309H26.1176ZM38.5639 25.2969V24.0726H38.5639L38.5639 25.2969ZM48.562 30.082L47.5972 30.8357L48.562 32.0708L49.5268 30.8357L48.562 30.082ZM58.561 25.2969L58.561 26.5211C64.8176 26.5213 69.7829 31.3287 69.783 37.1309L71.0073 37.1309L72.2316 37.1308C72.2314 29.8614 66.0521 24.0728 58.561 24.0726L58.561 25.2969ZM71.0073 37.1309H69.783C69.783 42.9333 64.8176 47.7414 58.561 47.7416L58.561 48.9658L58.561 50.1901C66.0523 50.1899 72.2316 44.4003 72.2316 37.1309H71.0073ZM58.561 48.9658V47.7416C54.8433 47.7416 51.5641 46.0345 49.5268 43.4261L48.562 44.1797L47.5971 44.9333C50.0961 48.1328 54.0856 50.1901 58.561 50.1901V48.9658ZM48.562 44.1797L47.5972 43.426C45.5597 46.0344 42.2813 47.7416 38.5639 47.7416V48.9658V50.1901C43.0392 50.1901 47.0279 48.1324 49.5268 44.9333L48.562 44.1797ZM38.5639 48.9658L38.564 47.7416C32.3073 47.7414 27.3419 42.9333 27.3419 37.1309H26.1176H24.8934C24.8934 44.4003 31.0727 50.1899 38.5639 50.1901L38.5639 48.9658ZM26.1176 37.1309L27.3419 37.1309C27.3421 31.3287 32.3073 26.5213 38.564 26.5211L38.5639 25.2969L38.5639 24.0726C31.0729 24.0728 24.8936 29.8615 24.8934 37.1308L26.1176 37.1309ZM38.5639 25.2969V26.5211C42.2813 26.5211 45.5599 28.2277 47.5972 30.8357L48.562 30.082L49.5268 29.3284C47.0277 26.1293 43.0389 24.0726 38.5639 24.0726V25.2969ZM48.562 30.082L49.5268 30.8357C51.564 28.2275 54.8432 26.5211 58.561 26.5211V25.2969V24.0726C54.086 24.0726 50.0963 26.129 47.5972 29.3284L48.562 30.082Z"
    fill="black"
    mask="url(#path-6-inside-3_2969_2241)"
  />
  <circle
    cx="84.2702"
    cy="70.8047"
    r="16.6296"
    fill="black"
    stroke="black"
    stroke-width="1.42831"
  />
  <circle
    cx="84.2702"
    cy="70.8056"
    r="13.3649"
    fill="white"
    stroke="black"
    stroke-width="1.42831"
  />
  <path
    d="M84.4741 60.8044L84.781 72.402L76.982 75.4144"
    stroke="black"
    stroke-width="2.04044"
    stroke-linecap="round"
  />
  <circle
    cx="84.4743"
    cy="48.9706"
    r="6.73345"
    fill="white"
    stroke="black"
    stroke-width="1.22426"
  />
  <circle
    cx="58.5607"
    cy="36.9297"
    r="3.46875"
    transform="rotate(90 58.5607 36.9297)"
    fill="black"
  />
  <circle
    cx="38.5643"
    cy="36.9297"
    r="3.46875"
    transform="rotate(90 38.5643 36.9297)"
    fill="black"
  />
</svg>
