<svg
  width="100"
  height="134"
  viewBox="0 0 100 134"
  fill="none"
  xmlns="http://www.w3.org/2000/svg"
>
  <path
    d="M49.8083 133.865C35.9386 133.865 24.6949 131.147 24.6949 127.796C24.6949 124.444 35.9386 121.727 49.8083 121.727C63.6781 121.727 74.9218 124.444 74.9218 127.796C74.9218 131.148 63.6781 133.865 49.8083 133.865Z"
    fill="black"
  />
  <path
    d="M71.7131 29.2266C87.3353 29.2266 99.9999 41.8909 100 57.5131V83.4048C100 99.0271 87.3353 111.692 71.7131 111.692C62.9894 111.692 55.1884 107.742 49.9996 101.534C44.8108 107.742 37.0101 111.692 28.2865 111.692C12.6643 111.692 0 99.027 0 83.4048V57.5131C7.66128e-05 41.8909 12.6644 29.2266 28.2865 29.2266C37.01 29.2266 44.8108 33.1758 49.9996 39.3835C55.1884 33.1757 62.9895 29.2266 71.7131 29.2266Z"
    fill="#775DFF"
  />
  <path
    d="M60.0629 50.1562C67.1133 50.1563 72.8289 55.5907 72.8289 62.2944C72.8289 68.9981 67.1133 74.4326 60.0629 74.4326C55.8615 74.4326 52.1346 72.5025 49.8082 69.5243C47.4819 72.5025 43.755 74.4326 39.5536 74.4326C32.5031 74.4326 26.7876 68.9981 26.7876 62.2944C26.7876 55.5907 32.5031 50.1563 39.5536 50.1562C43.7548 50.1563 47.4819 52.0861 49.8082 55.0641C52.1346 52.0861 55.8616 50.1563 60.0629 50.1562Z"
    fill="white"
  />
  <path
    d="M50.7978 68.7514C52.8874 71.4264 56.2501 73.1769 60.0629 73.1769V74.4326C55.8615 74.4326 52.1346 72.5025 49.8082 69.5243C47.4819 72.5025 43.755 74.4326 39.5536 74.4326V73.1769C43.3664 73.1769 46.729 71.4264 48.8187 68.7514L49.8082 67.4847L50.7978 68.7514ZM71.5732 62.2944C71.5732 56.4361 66.6383 51.5664 60.3629 51.4156L60.0629 51.4119C56.2501 51.4119 52.8874 53.1622 50.7978 55.837L49.8082 57.1037L48.8187 55.837C46.7943 53.2457 43.5752 51.522 39.9096 51.4168L39.5536 51.4119C33.1362 51.4119 28.0433 56.3431 28.0433 62.2944C28.0433 68.2457 33.1362 73.1769 39.5536 73.1769V74.4326C32.5031 74.4326 26.7876 68.9981 26.7876 62.2944C26.7876 55.5907 32.5031 50.1563 39.5536 50.1562C43.7548 50.1563 47.4819 52.0861 49.8082 55.0641C52.1346 52.0861 55.8616 50.1563 60.0629 50.1562C67.1133 50.1563 72.8289 55.5907 72.8289 62.2944C72.8289 68.9981 67.1133 74.4326 60.0629 74.4326V73.1769C66.38 73.1769 71.4137 68.3987 71.5695 62.5728L71.5732 62.2944Z"
    fill="black"
  />
  <path
    d="M60.063 68.3647C56.7111 68.3647 53.9939 65.6475 53.9939 62.2956C53.9939 58.9438 56.7111 56.2266 60.063 56.2266C63.4149 56.2266 66.1321 58.9438 66.1321 62.2956C66.1321 65.6475 63.4149 68.3647 60.063 68.3647Z"
    fill="black"
  />
  <path
    d="M39.5536 68.3647C36.2017 68.3647 33.4845 65.6475 33.4845 62.2956C33.4845 58.9438 36.2017 56.2266 39.5536 56.2266C42.9055 56.2266 45.6227 58.9438 45.6227 62.2956C45.6227 65.6475 42.9055 68.3647 39.5536 68.3647Z"
    fill="black"
  />
  <path
    d="M49.2815 89.2828C53.7326 86.9665 63.4048 84.3669 72.6721 89.7173C73.4228 90.1507 73.6802 91.1108 73.2467 91.8615C72.8269 92.5887 71.9128 92.8528 71.1736 92.4747L71.1025 92.4358L70.7015 92.2102C62.2763 87.5927 53.4431 90.4154 50.092 92.4232C50.0737 92.4341 50.0551 92.4445 50.0365 92.4546C50.0288 92.4588 50.0212 92.4629 50.0136 92.4669C49.997 92.4756 49.9802 92.4838 49.9633 92.4918C49.9566 92.4951 49.95 92.4985 49.9433 92.5016C49.9323 92.5067 49.9212 92.5116 49.9101 92.5164C49.7398 92.5905 49.5618 92.6321 49.3837 92.6431C49.3765 92.6435 49.3692 92.6439 49.362 92.6443C49.3508 92.6448 49.3397 92.6452 49.3285 92.6455C49.3141 92.6459 49.2996 92.6463 49.2852 92.6463C49.2762 92.6463 49.2672 92.6461 49.2582 92.6459C49.2404 92.6456 49.2225 92.6452 49.2047 92.6443C49.1996 92.644 49.1946 92.6434 49.1895 92.6431C49.1722 92.642 49.1549 92.641 49.1376 92.6394C49.1264 92.6383 49.1153 92.637 49.1041 92.6357C49.016 92.6255 48.9283 92.6078 48.8417 92.5822C48.8317 92.5792 48.8218 92.5759 48.8118 92.5728C48.7966 92.5679 48.7813 92.563 48.7661 92.5576C48.7594 92.5553 48.7527 92.5527 48.746 92.5503C48.7288 92.544 48.7116 92.5376 48.6945 92.5307C48.6872 92.5277 48.6801 92.5243 48.6729 92.5213C48.6583 92.515 48.6436 92.5087 48.6291 92.502C48.6172 92.4966 48.6054 92.4911 48.5936 92.4853C48.5863 92.4817 48.5787 92.4784 48.5715 92.4747L48.565 92.471C48.5457 92.461 48.5266 92.4507 48.5077 92.4399L48.5004 92.4358L48.0994 92.2102C39.6742 87.5927 30.8411 90.4154 27.49 92.4232C26.7464 92.8686 25.7822 92.6268 25.3367 91.8832C24.8914 91.1397 25.1329 90.1759 25.8762 89.7303C29.7604 87.4032 39.6528 84.1947 49.2815 89.2828Z"
    fill="black"
  />
  <path
    d="M85.8043 92.0106C85.8043 96.1715 82.4312 99.5446 78.2702 99.5446C74.1093 99.5446 70.7362 96.1715 70.7362 92.0106C70.7362 87.8497 74.1093 84.4766 78.2702 84.4766C82.4312 84.4766 85.8043 87.8497 85.8043 92.0106Z"
    fill="white"
  />
  <path
    d="M84.5486 92.0106C84.5486 88.5431 81.7377 85.7322 78.2702 85.7322C74.8028 85.7322 71.9919 88.5431 71.9919 92.0106C71.9919 95.478 74.8028 98.2889 78.2702 98.2889V99.5446C74.1093 99.5446 70.7362 96.1715 70.7362 92.0106C70.7362 87.8497 74.1093 84.4766 78.2702 84.4766C82.4312 84.4766 85.8043 87.8497 85.8043 92.0106C85.8043 96.1715 82.4312 99.5446 78.2702 99.5446V98.2889C81.7377 98.2889 84.5486 95.478 84.5486 92.0106Z"
    fill="black"
  />
  <path
    d="M27.6248 92.8465C27.6248 97.0075 24.2517 100.381 20.0908 100.381C15.9299 100.381 12.5568 97.0075 12.5568 92.8465C12.5568 88.6856 15.9299 85.3125 20.0908 85.3125C24.2517 85.3125 27.6248 88.6856 27.6248 92.8465Z"
    fill="white"
  />
  <path
    d="M26.3691 92.8465C26.3691 89.3791 23.5582 86.5682 20.0908 86.5682C16.6234 86.5682 13.8124 89.3791 13.8124 92.8465C13.8124 96.314 16.6234 99.1249 20.0908 99.1249V100.381C15.9299 100.381 12.5568 97.0075 12.5568 92.8465C12.5568 88.6856 15.9299 85.3125 20.0908 85.3125C24.2517 85.3125 27.6248 88.6856 27.6248 92.8465C27.6248 97.0075 24.2517 100.381 20.0908 100.381V99.1249C23.5582 99.1249 26.3691 96.314 26.3691 92.8465Z"
    fill="black"
  />
  <path
    d="M50.3741 1.59261C50.72 -0.136209 52.7958 -0.633526 53.4962 0.984469C53.8554 1.81437 54.184 2.7441 54.4199 3.74609C54.9118 5.83562 53.9341 8.64835 55.0049 10.3711C57.2016 13.905 59.9732 7.4051 59.9736 9.39648C59.9736 14.2016 60.9478 25.8914 51.1074 25.8916C41.2668 26.155 40 15.4683 40 10.6631C40.0008 9.12687 44.1829 17.5012 44.2852 3.99785C44.2877 3.67216 44.4086 3.14393 44.6814 3.32193C45.703 3.98863 47.3689 11.2054 49 6.72363C49.5919 5.0971 50.0437 3.24427 50.3741 1.59261ZM51.6465 10.6875C51.3731 9.49977 50.0689 9.53446 49.6477 10.6782C49.3131 11.587 48.9559 12.5652 48.6758 13.3525C47.9701 15.3358 47.2967 13.0362 46.8169 12.3416C46.6352 12.0785 46.4602 12.4453 46.4554 12.765C46.3599 19.123 44.3838 14.621 44.3838 15.377C44.3838 17.7675 45.4536 22.837 50.2393 22.7061C55.0252 22.7061 55.3428 17.3749 55.3428 14.9844C55.3427 13.9931 53.2032 16.7426 52.1348 14.9844C51.614 14.1273 51.8858 11.727 51.6465 10.6875ZM49.6326 14.5547C49.8474 13.993 50.492 13.9747 50.6318 14.5596C50.7515 15.0601 50.6156 16.2163 50.876 16.6289C51.4103 17.4746 52.4795 16.1517 52.4795 16.6289C52.4795 17.7801 52.3204 20.3457 49.9277 20.3457C47.5349 20.4087 47 17.9683 47 16.8174C47.0002 16.465 47.9276 18.4897 48.0283 15.8287C48.0407 15.499 48.1951 15.2912 48.3485 15.5832C48.573 16.0107 48.8544 16.6333 49.1465 15.8428C49.2866 15.4636 49.4652 14.9925 49.6326 14.5547Z"
    fill="#FFB05C"
  />
</svg>
