<svg
  width="217"
  height="170"
  viewBox="0 0 217 170"
  fill="none"
  xmlns="http://www.w3.org/2000/svg"
>
  <ellipse
    cx="110.841"
    cy="160.141"
    rx="9.86"
    ry="40.8"
    transform="rotate(90 110.841 160.141)"
    fill="black"
  />
  <mask id="path-2-inside-1_3249_3032" fill="white">
    <path
      d="M146.428 0C171.809 0 192.384 20.5748 192.384 45.9551V88.0195C192.384 113.4 171.809 133.975 146.428 133.975C132.255 133.974 119.582 127.557 111.152 117.471C102.722 127.557 90.0496 133.975 75.8765 133.975C50.4962 133.974 29.9214 113.4 29.9214 88.0195V45.9551C29.9215 20.5748 50.4962 0.000129882 75.8765 0C90.0495 0 102.722 6.41791 111.152 16.5039C119.582 6.41755 132.255 0.000123187 146.428 0Z"
    />
  </mask>
  <path
    d="M146.428 0C171.809 0 192.384 20.5748 192.384 45.9551V88.0195C192.384 113.4 171.809 133.975 146.428 133.975C132.255 133.974 119.582 127.557 111.152 117.471C102.722 127.557 90.0496 133.975 75.8765 133.975C50.4962 133.974 29.9214 113.4 29.9214 88.0195V45.9551C29.9215 20.5748 50.4962 0.000129882 75.8765 0C90.0495 0 102.722 6.41791 111.152 16.5039C119.582 6.41755 132.255 0.000123187 146.428 0Z"
    fill="#775DFF"
  />
  <path
    d="M146.428 0V-2.04H146.428L146.428 0ZM192.384 45.9551H194.424V45.9551L192.384 45.9551ZM146.428 133.975L146.428 136.015H146.428V133.975ZM111.152 117.471L112.717 116.162L111.152 114.29L109.587 116.162L111.152 117.471ZM75.8765 133.975L75.8765 136.015H75.8765V133.975ZM29.9214 45.9551L27.8814 45.9551V45.9551H29.9214ZM75.8765 0V-2.04H75.8765L75.8765 0ZM111.152 16.5039L109.587 17.8122L111.152 19.685L112.717 17.8121L111.152 16.5039ZM146.428 0V2.04C170.682 2.04 190.344 21.7015 190.344 45.9551L192.384 45.9551L194.424 45.9551C194.424 19.4481 172.935 -2.04 146.428 -2.04V0ZM192.384 45.9551H190.344V88.0195H192.384H194.424V45.9551H192.384ZM192.384 88.0195H190.344C190.344 112.273 170.682 131.935 146.428 131.935V133.975V136.015C172.935 136.015 194.424 114.527 194.424 88.0195H192.384ZM146.428 133.975L146.428 131.935C132.885 131.934 120.776 125.805 112.717 116.162L111.152 117.471L109.587 118.779C118.387 129.309 131.625 136.014 146.428 136.015L146.428 133.975ZM111.152 117.471L109.587 116.162C101.527 125.805 89.4195 131.935 75.8765 131.935V133.975V136.015C90.6797 136.015 103.916 129.309 112.717 118.779L111.152 117.471ZM75.8765 133.975L75.8765 131.935C51.6228 131.934 31.9614 112.273 31.9614 88.0195H29.9214H27.8814C27.8814 114.527 49.3695 136.014 75.8765 136.015L75.8765 133.975ZM29.9214 88.0195H31.9614V45.9551H29.9214H27.8814V88.0195H29.9214ZM29.9214 45.9551L31.9614 45.9551C31.9615 21.7015 51.6229 2.04012 75.8765 2.04L75.8765 0L75.8765 -2.04C49.3696 -2.03986 27.8815 19.4482 27.8814 45.9551L29.9214 45.9551ZM75.8765 0V2.04C89.4194 2.04 101.527 8.16983 109.587 17.8122L111.152 16.5039L112.717 15.1956C103.916 4.666 90.6796 -2.04 75.8765 -2.04V0ZM111.152 16.5039L112.717 17.8121C120.776 8.16954 132.885 2.04012 146.428 2.04L146.428 0L146.428 -2.04C131.625 -2.03987 118.387 4.66557 109.587 15.1957L111.152 16.5039Z"
    fill="black"
    mask="url(#path-2-inside-1_3249_3032)"
  />
  <mask id="path-4-inside-2_3249_3032" fill="white">
    <path
      d="M127.5 34C138.955 34 148.24 42.8288 148.241 53.7197C148.241 64.6108 138.955 73.4404 127.5 73.4404C120.674 73.4403 114.62 70.3037 110.84 65.4648C107.061 70.3034 101.007 73.4403 94.181 73.4404C82.7266 73.4404 73.4408 64.6108 73.4408 53.7197C73.4409 42.8288 82.7267 34 94.181 34C101.006 34.0001 107.061 37.1356 110.84 41.9736C114.62 37.1353 120.675 34.0001 127.5 34Z"
    />
  </mask>
  <path
    d="M127.5 34C138.955 34 148.24 42.8288 148.241 53.7197C148.241 64.6108 138.955 73.4404 127.5 73.4404C120.674 73.4403 114.62 70.3037 110.84 65.4648C107.061 70.3034 101.007 73.4403 94.181 73.4404C82.7266 73.4404 73.4408 64.6108 73.4408 53.7197C73.4409 42.8288 82.7267 34 94.181 34C101.006 34.0001 107.061 37.1356 110.84 41.9736C114.62 37.1353 120.675 34.0001 127.5 34Z"
    fill="white"
  />
  <path
    d="M127.5 34V31.96H127.5L127.5 34ZM148.241 53.7197H150.281V53.7197L148.241 53.7197ZM127.5 73.4404L127.5 75.4804H127.5V73.4404ZM110.84 65.4648L112.448 64.2091L110.84 62.1508L109.233 64.2091L110.84 65.4648ZM94.181 73.4404V75.4804H94.1811L94.181 73.4404ZM73.4408 53.7197L71.4008 53.7197V53.7197H73.4408ZM94.181 34L94.1811 31.96H94.181V34ZM110.84 41.9736L109.233 43.2295L110.84 45.2874L112.448 43.2294L110.84 41.9736ZM127.5 34V36.04C137.926 36.04 146.2 44.0512 146.201 53.7198L148.241 53.7197L150.281 53.7197C150.28 41.6064 139.983 31.96 127.5 31.96V34ZM148.241 53.7197H146.201C146.201 63.3885 137.926 71.4004 127.5 71.4004V73.4404V75.4804C139.983 75.4804 150.281 65.8331 150.281 53.7197H148.241ZM127.5 73.4404L127.5 71.4004C121.306 71.4003 115.843 68.5556 112.448 64.2091L110.84 65.4648L109.232 66.7206C113.396 72.0517 120.043 75.4803 127.5 75.4804L127.5 73.4404ZM110.84 65.4648L109.233 64.2091C105.838 68.5555 100.375 71.4003 94.181 71.4004L94.181 73.4404L94.1811 75.4804C101.638 75.4803 108.284 72.0513 112.448 66.7206L110.84 65.4648ZM94.181 73.4404V71.4004C83.7552 71.4004 75.4808 63.3885 75.4808 53.7197H73.4408H71.4008C71.4008 65.8331 81.6981 75.4804 94.181 75.4804V73.4404ZM73.4408 53.7197L75.4808 53.7198C75.4809 44.0512 83.7552 36.04 94.181 36.04V34V31.96C81.6983 31.96 71.401 41.6064 71.4008 53.7197L73.4408 53.7197ZM94.181 34L94.181 36.04C100.375 36.0401 105.838 38.8838 109.233 43.2295L110.84 41.9736L112.448 40.7178C108.284 35.3874 101.638 31.9601 94.1811 31.96L94.181 34ZM110.84 41.9736L112.448 43.2294C115.843 38.8837 121.306 36.0401 127.5 36.04L127.5 34L127.5 31.96C120.044 31.9601 113.397 35.387 109.233 40.7178L110.84 41.9736Z"
    fill="black"
    mask="url(#path-4-inside-2_3249_3032)"
  />
  <ellipse
    cx="127.501"
    cy="53.3834"
    rx="9.86"
    ry="9.86"
    transform="rotate(90 127.501 53.3834)"
    fill="black"
  />
  <ellipse
    cx="94.1808"
    cy="53.3834"
    rx="9.86"
    ry="9.86"
    transform="rotate(90 94.1808 53.3834)"
    fill="black"
  />
  <path
    d="M1.59384 84.0867C8.17211 80.7925 24.5918 76.8072 39.5675 86.2323C47.0633 83.0257 63.0484 80.0012 77.404 89.8031C78.567 90.5972 78.8662 92.184 78.0722 93.347C77.2782 94.51 75.6914 94.8091 74.5283 94.0152C61.291 84.9768 46.2574 88.5323 40.4924 91.4193C39.608 91.8622 38.5904 91.7411 37.8436 91.1945C24.6235 82.2161 9.6328 85.764 3.87758 88.646C2.61845 89.2766 1.0863 88.7677 0.45556 87.5087C-0.17493 86.2495 0.334786 84.7174 1.59384 84.0867Z"
    fill="black"
  />
  <circle
    cx="38.7607"
    cy="99.2791"
    r="11.22"
    fill="white"
    stroke="black"
    stroke-width="2.04"
  />
  <path
    d="M209.391 87.7891L172.073 90.0514L171.413 82.5278L208.731 80.2654L209.391 87.7891Z"
    fill="white"
  />
  <path
    d="M176.419 92.1783C171.756 92.3809 167.791 90.0295 167.513 86.8612C167.231 83.6428 170.86 80.7996 175.619 80.511L212.4 78.2811C213.746 78.1996 214.901 78.8714 214.981 79.7813C215.061 80.6915 214.035 81.4954 212.689 81.577L210.555 81.7064L210.999 86.7703L213.133 86.6409C214.479 86.5594 215.635 87.2311 215.715 88.1411C215.794 89.0513 214.768 89.8552 213.422 89.9368L176.641 92.1666L176.419 92.1783ZM206.656 81.9427L175.908 83.8068C173.841 83.9322 172.264 85.1676 172.386 86.5658C172.505 87.9204 174.176 88.9311 176.16 88.879L176.352 88.8707L207.1 87.0067L206.656 81.9427Z"
    fill="black"
  />
  <path
    d="M209.466 77.5234L173.703 79.6915L173.043 72.1679L208.806 69.9998L209.466 77.5234Z"
    fill="white"
  />
  <path
    d="M178.278 81.8046C173.825 81.9944 170.029 79.6328 169.751 76.4645C169.469 73.2461 172.924 70.4134 177.468 70.1379L212.586 68.0088C213.871 67.931 214.978 68.6058 215.058 69.5157C215.137 70.4258 214.16 71.2268 212.876 71.3047L210.838 71.4282L211.282 76.4922L213.32 76.3686C214.604 76.2907 215.711 76.9655 215.791 77.8755C215.871 78.7856 214.894 79.5866 213.609 79.6645L178.49 81.7935L178.278 81.8046ZM207.115 71.6539L177.757 73.4337C175.783 73.5535 174.282 74.7842 174.404 76.1824C174.523 77.5371 176.123 78.5521 178.017 78.5054L178.201 78.4977L207.559 76.7178L207.115 71.6539Z"
    fill="black"
  />
  <circle
    cx="192.441"
    cy="99.2791"
    r="11.22"
    fill="white"
    stroke="black"
    stroke-width="2.04"
  />
</svg>
