<svg
  width="138"
  height="133"
  viewBox="0 0 138 133"
  fill="none"
  xmlns="http://www.w3.org/2000/svg"
>
  <ellipse
    cx="56.124"
    cy="126.159"
    rx="6.83865"
    ry="28.2979"
    transform="rotate(90 56.124 126.159)"
    fill="#2D2D33"
  />
  <mask id="path-2-inside-1_3847_3304" fill="white">
    <path
      d="M80.8071 15.0938C98.4104 15.0938 112.681 29.3636 112.681 46.9668V76.1416C112.681 93.7448 98.4104 108.016 80.8071 108.016C70.9766 108.016 62.1871 103.563 56.3403 96.5674C50.4936 103.563 41.7048 108.016 31.8745 108.016C14.2713 108.016 0.000488281 93.7448 0.000488281 76.1416V46.9668C0.000490395 29.3636 14.2713 15.0938 31.8745 15.0938C41.7045 15.0939 50.4936 19.5447 56.3403 26.54C62.1871 19.5444 70.9769 15.0938 80.8071 15.0938Z"
    />
  </mask>
  <path
    d="M80.8071 15.0938C98.4104 15.0938 112.681 29.3636 112.681 46.9668V76.1416C112.681 93.7448 98.4104 108.016 80.8071 108.016C70.9766 108.016 62.1871 103.563 56.3403 96.5674C50.4936 103.563 41.7048 108.016 31.8745 108.016C14.2713 108.016 0.000488281 93.7448 0.000488281 76.1416V46.9668C0.000490395 29.3636 14.2713 15.0938 31.8745 15.0938C41.7045 15.0939 50.4936 19.5447 56.3403 26.54C62.1871 19.5444 70.9769 15.0938 80.8071 15.0938Z"
    fill="#775DFF"
  />
  <path
    d="M80.8071 15.0938V13.6789H80.8071L80.8071 15.0938ZM112.681 46.9668H114.096V46.9668H112.681ZM80.8071 108.016L80.8071 109.431H80.8071V108.016ZM56.3403 96.5674L57.426 95.6601L56.3403 94.361L55.2547 95.66L56.3403 96.5674ZM31.8745 108.016V109.431H31.8745L31.8745 108.016ZM0.000488281 46.9668H-1.41441V46.9668H0.000488281ZM31.8745 15.0938L31.8745 13.6789H31.8745V15.0938ZM56.3403 26.54L55.2547 27.4474L56.3403 28.7464L57.426 27.4474L56.3403 26.54ZM80.8071 15.0938V16.5086C97.629 16.5086 111.266 30.1451 111.266 46.9668H112.681H114.096C114.096 28.5821 99.1917 13.6789 80.8071 13.6789V15.0938ZM112.681 46.9668H111.266V76.1416H112.681H114.096V46.9668H112.681ZM112.681 76.1416H111.266C111.266 92.9634 97.6289 106.601 80.8071 106.601V108.016V109.431C99.1918 109.431 114.096 94.5263 114.096 76.1416H112.681ZM80.8071 108.016L80.8071 106.601C71.4137 106.601 63.0156 102.348 57.426 95.6601L56.3403 96.5674L55.2547 97.4747C61.3586 104.778 70.5395 109.43 80.8071 109.431L80.8071 108.016ZM56.3403 96.5674L55.2547 95.66C49.6651 102.348 41.2676 106.601 31.8745 106.601L31.8745 108.016L31.8745 109.431C42.1419 109.43 51.3222 104.778 57.426 97.4747L56.3403 96.5674ZM31.8745 108.016V106.601C15.0527 106.601 1.41538 92.9634 1.41538 76.1416H0.000488281H-1.41441C-1.41441 94.5263 13.4899 109.431 31.8745 109.431V108.016ZM0.000488281 76.1416H1.41538V46.9668H0.000488281H-1.41441V76.1416H0.000488281ZM0.000488281 46.9668H1.41538C1.41538 30.145 15.0526 16.5086 31.8745 16.5086V15.0938V13.6789C13.4899 13.6789 -1.4144 28.5821 -1.41441 46.9668H0.000488281ZM31.8745 15.0938L31.8745 16.5086C41.2675 16.5088 49.6652 20.7598 55.2547 27.4474L56.3403 26.54L57.426 25.6327C51.322 18.3296 42.1414 13.679 31.8745 13.6789L31.8745 15.0938ZM56.3403 26.54L57.426 27.4474C63.0155 20.7596 71.4138 16.5087 80.8071 16.5086L80.8071 15.0938L80.8071 13.6789C70.54 13.6789 61.3587 18.3293 55.2547 25.6327L56.3403 26.54Z"
    fill="black"
    mask="url(#path-2-inside-1_3847_3304)"
  />
  <mask id="path-4-inside-2_3847_3304" fill="white">
    <path
      d="M67.6792 38.6719C75.6235 38.6721 82.064 44.796 82.064 52.3496C82.064 59.9032 75.6235 66.0271 67.6792 66.0273C62.945 66.0273 58.7449 63.852 56.1235 60.4961C53.5022 63.8519 49.3029 66.0273 44.5688 66.0273C36.6244 66.0273 30.1841 59.9034 30.1841 52.3496C30.1841 44.7958 36.6244 38.6719 44.5688 38.6719C49.3027 38.6719 53.5022 40.8467 56.1235 44.2021C58.7449 40.8466 62.9453 38.6719 67.6792 38.6719Z"
    />
  </mask>
  <path
    d="M67.6792 38.6719C75.6235 38.6721 82.064 44.796 82.064 52.3496C82.064 59.9032 75.6235 66.0271 67.6792 66.0273C62.945 66.0273 58.7449 63.852 56.1235 60.4961C53.5022 63.8519 49.3029 66.0273 44.5688 66.0273C36.6244 66.0273 30.1841 59.9034 30.1841 52.3496C30.1841 44.7958 36.6244 38.6719 44.5688 38.6719C49.3027 38.6719 53.5022 40.8467 56.1235 44.2021C58.7449 40.8466 62.9453 38.6719 67.6792 38.6719Z"
    fill="white"
  />
  <path
    d="M67.6792 38.6719L67.6792 37.257H67.6792V38.6719ZM82.064 52.3496H83.4789V52.3496L82.064 52.3496ZM67.6792 66.0273V67.4422H67.6792L67.6792 66.0273ZM56.1235 60.4961L57.2386 59.6251L56.1236 58.1976L55.0085 59.6251L56.1235 60.4961ZM44.5688 66.0273V67.4422H44.5689L44.5688 66.0273ZM30.1841 52.3496L28.7692 52.3496V52.3496H30.1841ZM44.5688 38.6719L44.5689 37.257H44.5688V38.6719ZM56.1235 44.2021L55.0086 45.0732L56.1236 46.5004L57.2385 45.0732L56.1235 44.2021ZM67.6792 38.6719L67.6792 40.0868C74.9101 40.087 80.6491 45.6438 80.6491 52.3496L82.064 52.3496L83.4789 52.3496C83.4789 43.9482 76.3368 37.2572 67.6792 37.257L67.6792 38.6719ZM82.064 52.3496H80.6491C80.6491 59.0554 74.9101 64.6122 67.6792 64.6124L67.6792 66.0273L67.6792 67.4422C76.3368 67.442 83.4789 60.751 83.4789 52.3496H82.064ZM67.6792 66.0273V64.6124C63.3828 64.6124 59.5932 62.6395 57.2386 59.6251L56.1235 60.4961L55.0085 61.3671C57.8966 65.0645 62.5071 67.4422 67.6792 67.4422V66.0273ZM56.1235 60.4961L55.0085 59.6251C52.6538 62.6395 48.865 64.6124 44.5688 64.6124L44.5688 66.0273L44.5689 67.4422C49.7409 67.4422 54.3506 65.0643 57.2386 61.3671L56.1235 60.4961ZM44.5688 66.0273V64.6124C37.3378 64.6124 31.599 59.0556 31.599 52.3496H30.1841H28.7692C28.7692 60.7511 35.911 67.4422 44.5688 67.4422V66.0273ZM30.1841 52.3496L31.599 52.3496C31.599 45.6436 37.3378 40.0868 44.5688 40.0868V38.6719V37.257C35.911 37.257 28.7692 43.9481 28.7692 52.3496L30.1841 52.3496ZM44.5688 38.6719L44.5688 40.0868C48.8649 40.0868 52.6539 42.0592 55.0086 45.0732L56.1235 44.2021L57.2385 43.3311C54.3504 39.6342 49.7405 37.257 44.5689 37.257L44.5688 38.6719ZM56.1235 44.2021L57.2385 45.0732C59.5931 42.0592 63.3829 40.0868 67.6792 40.0868V38.6719V37.257C62.5076 37.257 57.8967 39.634 55.0085 43.3311L56.1235 44.2021Z"
    fill="black"
    mask="url(#path-4-inside-2_3847_3304)"
  />
  <ellipse
    cx="72.8664"
    cy="47.8777"
    rx="6.83865"
    ry="6.83865"
    transform="rotate(90 72.8664 47.8777)"
    fill="black"
  />
  <ellipse
    cx="49.757"
    cy="47.8777"
    rx="6.83865"
    ry="6.83865"
    transform="rotate(90 49.757 47.8777)"
    fill="black"
  />
  <mask id="path-8-inside-3_3847_3304" fill="white">
    <path
      d="M115.078 0C102.575 0.000152719 92.4399 7.39754 92.4399 16.5225C92.4399 20.0021 93.9153 23.2288 96.4321 25.8916L95.8823 31.6875L100.891 29.3955C104.773 31.6768 109.706 33.0449 115.078 33.0449C127.58 33.0449 137.716 25.6475 137.716 16.5225C137.716 7.39745 127.58 0 115.078 0Z"
    />
  </mask>
  <path
    d="M115.078 0C102.575 0.000152719 92.4399 7.39754 92.4399 16.5225C92.4399 20.0021 93.9153 23.2288 96.4321 25.8916L95.8823 31.6875L100.891 29.3955C104.773 31.6768 109.706 33.0449 115.078 33.0449C127.58 33.0449 137.716 25.6475 137.716 16.5225C137.716 7.39745 127.58 0 115.078 0Z"
    fill="white"
  />
  <path
    d="M115.078 0L115.078 -1.41489H115.078V0ZM92.4399 16.5225L91.025 16.5225V16.5225H92.4399ZM96.4321 25.8916L97.4604 24.9197L97.9013 25.3862L97.8407 26.0252L96.4321 25.8916ZM95.8823 31.6875L96.4711 32.9741L94.2423 33.994L94.4738 31.5539L95.8823 31.6875ZM100.891 29.3955L100.302 28.1089L100.973 27.8022L101.608 28.1757L100.891 29.3955ZM115.078 33.0449V34.4598H115.078L115.078 33.0449ZM137.716 16.5225H139.131V16.5225L137.716 16.5225ZM115.078 0L115.078 1.41489C109.094 1.41497 103.734 3.18715 99.9045 5.98231C96.0736 8.7783 93.8548 12.522 93.8548 16.5225H92.4399H91.025C91.025 11.398 93.8738 6.88055 98.2362 3.69658C102.6 0.511773 108.559 -1.41481 115.078 -1.41489L115.078 0ZM92.4399 16.5225L93.8548 16.5225C93.8548 19.5803 95.147 22.4722 97.4604 24.9197L96.4321 25.8916L95.4039 26.8635C92.6835 23.9854 91.0251 20.4238 91.025 16.5225L92.4399 16.5225ZM96.4321 25.8916L97.8407 26.0252L97.2909 31.8211L95.8823 31.6875L94.4738 31.5539L95.0236 25.758L96.4321 25.8916ZM95.8823 31.6875L95.2936 30.4009L100.302 28.1089L100.891 29.3955L101.48 30.6821L96.4711 32.9741L95.8823 31.6875ZM100.891 29.3955L101.608 28.1757C105.257 30.3205 109.94 31.63 115.078 31.63L115.078 33.0449L115.078 34.4598C109.472 34.4597 104.288 33.0332 100.174 30.6153L100.891 29.3955ZM115.078 33.0449V31.63C121.061 31.63 126.421 29.8579 130.251 27.0627C134.082 24.2667 136.301 20.5229 136.301 16.5225L137.716 16.5225L139.131 16.5225C139.131 21.647 136.282 26.1645 131.92 29.3484C127.556 32.5333 121.597 34.4598 115.078 34.4598V33.0449ZM137.716 16.5225H136.301C136.301 12.522 134.082 8.77825 130.251 5.98223C126.422 3.18706 121.061 1.41489 115.078 1.41489V0V-1.41489C121.597 -1.41489 127.556 0.511666 131.92 3.69647C136.282 6.88043 139.131 11.3979 139.131 16.5225H137.716Z"
    fill="black"
    mask="url(#path-8-inside-3_3847_3304)"
  />
  <path
    d="M123.892 17.7696C123.293 17.7696 122.78 17.2734 122.797 16.6575C122.78 16.0587 123.293 15.5625 123.892 15.5625C124.491 15.5625 124.987 16.0587 124.987 16.6575C124.987 17.2734 124.491 17.7696 123.892 17.7696Z"
    fill="black"
  />
  <path
    d="M115.08 17.7696C114.481 17.7696 113.968 17.2734 113.985 16.6575C113.968 16.0587 114.481 15.5625 115.08 15.5625C115.679 15.5625 116.175 16.0587 116.175 16.6575C116.175 17.2734 115.679 17.7696 115.08 17.7696Z"
    fill="black"
  />
  <path
    d="M106.269 17.7696C105.67 17.7696 105.157 17.2734 105.174 16.6575C105.157 16.0587 105.67 15.5625 106.269 15.5625C106.868 15.5625 107.364 16.0587 107.364 16.6575C107.364 17.2734 106.868 17.7696 106.269 17.7696Z"
    fill="black"
  />
</svg>
