<svg
  width="22"
  height="22"
  viewBox="0 0 22 22"
  fill="none"
  xmlns="http://www.w3.org/2000/svg"
>
  <g clip-path="url(#clip0_2901_2097)">
    <path
      d="M11 14.3359C11 16.1693 12.8337 18.0029 14.667 18.0029C12.8337 18.0029 11 19.8366 11 21.6699C11 19.8366 9.16634 18.0029 7.33301 18.0029C9.16634 18.0029 11 16.1693 11 14.3359ZM17.417 6.33594C17.417 8.16916 19.2498 10.0027 21.083 10.0029C19.2498 10.0031 17.417 11.8367 17.417 13.6699C17.417 11.8366 15.5833 10.0029 13.75 10.0029C15.5833 10.0029 17.417 8.16927 17.417 6.33594ZM7.33301 0.585938C7.33301 3.79427 10.5417 7.00293 13.75 7.00293C10.5417 7.00293 7.33301 10.2116 7.33301 13.4199C7.33301 10.2117 4.12522 7.00315 0.916992 7.00293C4.12522 7.00271 7.33301 3.79416 7.33301 0.585938Z"
      fill="#8E79FF"
    />
  </g>
  <defs>
    <clipPath id="clip0_2901_2097">
      <rect width="22" height="22" fill="white" />
    </clipPath>
  </defs>
</svg>
